<?xml version="1.0" encoding="UTF-8"?>
<svg version="1.1" xmlns="http://www.w3.org/2000/svg" width="2608" height="1148">
<path d="M0 0 C0.60392578 0.34933594 1.20785156 0.69867188 1.83007812 1.05859375 C26.54117122 15.61334761 44.40770497 36.07733798 51.8125 64.25 C60.3819968 108.62423345 38.7880748 151.24262707 20.67578125 190.23828125 C19.78379864 192.15882838 18.89186617 194.0793988 18 196 C17.46705322 197.1454126 17.46705322 197.1454126 16.92333984 198.31396484 C4.77427392 224.61911483 12.82785595 250.95581172 22.31640625 277.05078125 C26.65804583 288.54805524 31.68151961 299.77328466 36.72241211 310.97753906 C38.94811871 316.24301732 40.2502723 320.58961709 40.24050903 326.34017944 C40.24463303 328.22049362 40.24463303 328.22049362 40.24884033 330.13879395 C40.24176347 331.51489355 40.23449388 332.89099217 40.22705078 334.26708984 C40.22648622 335.72608431 40.22680411 337.18507935 40.22793579 338.64407349 C40.22850855 342.59405552 40.21676667 346.54391557 40.20278788 350.4938693 C40.19026774 354.62584022 40.189109 358.75781407 40.18673706 362.88980103 C40.18052606 370.7094737 40.16412039 378.5290903 40.14403808 386.34873831 C40.12166725 395.25317415 40.11068267 404.1576127 40.10064721 413.06206965 C40.07975383 431.37474486 40.04458524 449.68736792 40 468 C40.86084104 467.84207788 41.72168207 467.68415577 42.6086092 467.52144814 C63.58394044 463.67350962 84.55928925 459.82566694 105.53465748 455.97793007 C115.67830563 454.11716947 125.8219479 452.25637679 135.96557617 450.39550781 C144.80985795 448.77300664 153.65415091 447.15056647 162.49845713 445.5281986 C167.17859902 444.66968795 171.85873542 443.81114739 176.53885841 442.95253372 C180.95054905 442.14316755 185.36225471 441.33388338 189.77397156 440.52466011 C191.38675163 440.22881986 192.99952637 439.93295052 194.61229515 439.63704872 C195.36935564 439.49814909 196.12641613 439.35924946 196.90641785 439.21614075 C197.63778942 439.08189312 198.36916098 438.94764549 199.12269533 438.80932975 C200.523852 438.55254139 201.92513611 438.29644722 203.32656062 438.04112458 C206.31016248 437.49718897 209.29100545 436.94353908 212.26828575 436.36588669 C213.70594764 436.08970945 213.70594764 436.08970945 215.1726532 435.80795288 C215.97272639 435.65005468 216.77279959 435.49215649 217.59711742 435.3294735 C220 435 220 435 226 435 C226 566.67 226 698.34 226 834 C110 834 110 834 97 833 C97.11837848 818.77077347 97.24437296 804.54161926 97.375 790.3125 C97.38516521 789.20481262 97.39533043 788.09712524 97.40580368 786.95587158 C97.83338384 740.63554233 98.43131333 694.3179293 99.0625 648 C99.0740232 647.15403653 99.0855464 646.30807305 99.09741879 645.43647432 C99.39460456 623.62426514 99.69537322 601.81210655 100 580 C99.01064437 580.2030264 99.01064437 580.2030264 98.00130177 580.41015434 C93.55500617 581.31292475 89.13220244 582.20123692 84.62963867 582.77783203 C83.24351631 582.95779221 83.24351631 582.95779221 81.82939148 583.14138794 C80.86862198 583.26230804 79.90785248 583.38322815 78.91796875 583.5078125 C77.90076248 583.63815887 76.88355621 583.76850525 75.83552551 583.90280151 C73.70380366 584.17505471 71.57185674 584.44555102 69.43969727 584.71435547 C66.17853387 585.12613212 62.91835111 585.54511164 59.65820312 585.96484375 C57.57817951 586.22959531 55.49810315 586.49393284 53.41796875 586.7578125 C52.44707809 586.88278107 51.47618744 587.00774963 50.47587585 587.13650513 C49.56755508 587.25017426 48.65923431 587.36384338 47.72338867 587.48095703 C46.92970383 587.58151398 46.13601898 587.68207092 45.31828308 587.78567505 C42.88817244 588.01033844 40.4404736 588 38 588 C38 668.85 38 749.7 38 833 C-18.40282712 835.30215621 -18.40282712 835.30215621 -38.13378906 835.96142578 C-40.45847003 836.04040642 -42.78314637 836.11952351 -45.1078186 836.19876099 C-51.23057857 836.40696376 -57.35340976 836.61298179 -63.47626972 836.81822062 C-67.33200796 836.94753893 -71.18773072 837.07731046 -75.0434494 837.20721054 C-85.82833593 837.57048284 -96.61323932 837.93323707 -107.39822769 838.2934742 C-108.41629341 838.32748017 -108.41629341 838.32748017 -109.45492612 838.36217313 C-110.82903718 838.40806977 -112.20314825 838.45396617 -113.57725933 838.49986233 C-114.25881453 838.52262749 -114.94036974 838.54539264 -115.64257812 838.56884766 C-116.66622458 838.60303853 -116.66622458 838.60303853 -117.71055076 838.63792013 C-128.82332708 839.00921735 -139.93594622 839.38501944 -151.04850677 839.76271428 C-162.59767247 840.15518534 -174.146961 840.5438565 -185.69637084 840.92907703 C-192.12582956 841.1436005 -198.55522987 841.35959182 -204.9845047 841.57956314 C-230.00180362 842.43425762 -254.96533851 843.23572095 -280 843 C-279.34 834.75 -278.68 826.5 -278 818 C-282.98420044 818.00785522 -282.98420044 818.00785522 -288.0690918 818.01586914 C-303.60855511 818.03888286 -319.14802324 818.05311054 -334.6875 818.0625 C-335.73484338 818.06315145 -335.73484338 818.06315145 -336.8033452 818.06381607 C-373.60058001 818.08608765 -410.39331095 818.04001785 -447.1875 817.5 C-448.00296169 817.48804218 -448.81842339 817.47608437 -449.65859604 817.46376419 C-459.10599659 817.32395868 -468.55308996 817.16995185 -478 817 C-478.20364495 802.1233339 -477.56293567 787.35260868 -476.73071289 772.50170898 C-476.59396868 769.99302002 -476.45767484 767.48430648 -476.3217926 764.97557068 C-475.99250458 758.91795578 -475.6584763 752.86061986 -475.32215197 746.803393 C-474.92981532 739.73353134 -474.54304803 732.6633681 -474.15646594 725.59318984 C-473.46637504 712.97554734 -472.77135718 700.35818118 -472.07348633 687.7409668 C-471.39768848 675.52273806 -470.72535523 663.30432522 -470.05688477 651.08569336 C-470.01563223 650.33166827 -469.9743797 649.57764318 -469.93187708 648.80076884 C-469.89069321 648.04798859 -469.84950934 647.29520833 -469.80707747 646.51961654 C-469.04340418 632.56110814 -468.27676525 618.60276406 -467.50858646 604.64450292 C-467.27629226 600.42268792 -467.04452016 596.20084464 -466.81313998 591.97897946 C-466.41201842 584.65994608 -466.00862864 577.3410424 -465.60272789 570.02227211 C-465.46852947 567.59637536 -465.33508575 565.17043673 -465.20246124 562.74445343 C-465.02098068 559.42733 -464.83671449 556.11037243 -464.65174866 552.79344177 C-464.60018822 551.8394477 -464.54862779 550.88545362 -464.49550492 549.90255064 C-464.15779471 543.91499702 -463.64578798 537.96216598 -463 532 C-457.29636181 530.68363518 -451.5980847 529.52999032 -445.82058716 528.59225464 C-445.04699039 528.46458283 -444.27339363 528.33691102 -443.47635454 528.20537037 C-440.90405939 527.7814793 -438.33118857 527.36119567 -435.75830078 526.94091797 C-433.89418021 526.63450614 -432.03009603 526.32787285 -430.16604519 526.0210371 C-425.07948938 525.18441958 -419.99241928 524.35096783 -414.90525365 523.5180676 C-409.46883946 522.62742758 -404.03290527 521.7338669 -398.59690857 520.84068298 C-388.07821698 519.11286761 -377.5590728 517.38782358 -367.03974158 515.66390711 C-358.56729501 514.27541848 -350.09498468 512.88610165 -341.62277222 511.4961853 C-339.19877915 511.09852225 -336.77478604 510.70085945 -334.35079288 510.30319691 C-333.14936685 510.10609957 -331.94794081 509.90900224 -330.71010792 509.70593226 C-311.23730542 506.51147965 -291.76413799 503.31925863 -272.29071796 500.12857282 C-271.10439529 499.93419555 -269.91807262 499.73981827 -268.69580078 499.53955078 C-266.92484659 499.24938267 -266.92484659 499.24938267 -265.11811554 498.95335257 C-247.03816245 495.99085299 -228.95904591 493.02329313 -210.88048935 490.05228424 C-196.87277527 487.75033402 -182.86455308 485.45149826 -168.855793 483.15592194 C-160.94590986 481.85967721 -153.03626901 480.56199528 -145.1272583 479.26043701 C-138.51625971 478.17250657 -131.90474701 477.08777389 -125.29250127 476.00744802 C-121.98614875 475.46715527 -118.68016209 474.92484732 -115.3746624 474.37934685 C-111.8488677 473.79772659 -108.3221692 473.22194416 -104.79516602 472.64770508 C-103.77631884 472.47819273 -102.75747166 472.30868038 -101.70775032 472.1340313 C-100.77093359 471.98275339 -99.83411686 471.83147549 -98.86891174 471.6756134 C-98.06706231 471.5440878 -97.26521288 471.4125622 -96.43906498 471.27705097 C-93.64251121 470.9593932 -90.81453716 471 -88 471 C-88 456.15 -88 441.3 -88 426 C-94.435 427.485 -94.435 427.485 -101 429 C-103.35296948 429.47243135 -105.70964265 429.92746709 -108.07202148 430.3503418 C-109.29296005 430.57034348 -110.51389862 430.79034515 -111.77183533 431.01701355 C-113.04209061 431.24214127 -114.31234589 431.46726898 -115.62109375 431.69921875 C-116.97822021 431.94141362 -118.33532113 432.18375158 -119.69239807 432.42622375 C-122.50799322 432.92843359 -125.32402612 433.42809373 -128.14038086 433.92602539 C-131.73778293 434.56238561 -135.33373643 435.206566 -138.92938137 435.85277081 C-141.71949683 436.35308881 -144.51044493 436.84863043 -147.30165291 437.34281349 C-149.26857421 437.69211183 -151.2346925 438.04592242 -153.20079041 438.39982605 C-154.39966385 438.61037125 -155.59853729 438.82091644 -156.83374023 439.0378418 C-157.88262924 439.224207 -158.93151825 439.4105722 -160.01219177 439.60258484 C-163.04492243 440.00597523 -165.94439014 440.07027773 -169 440 C-169.0928125 441.03253906 -169.185625 442.06507813 -169.28125 443.12890625 C-170.08258939 449.52974569 -171.85692006 455.71161277 -173.5 461.9375 C-173.82097656 463.18080078 -174.14195312 464.42410156 -174.47265625 465.70507812 C-176.86710654 474.86710654 -176.86710654 474.86710654 -178 476 C-183.6232604 476.99636204 -189.25958668 477.33503382 -194.95507812 477.66430664 C-195.92996689 477.72297409 -196.90485565 477.78164154 -197.9092865 477.84208679 C-201.11644366 478.03431721 -204.32383127 478.22234477 -207.53125 478.41015625 C-209.76893246 478.54305392 -212.0066032 478.67614913 -214.2442627 478.80943298 C-218.92787172 479.08776872 -223.61159392 479.36408977 -228.29541016 479.63891602 C-234.29097053 479.99081806 -240.28625797 480.34714239 -246.28147125 480.7049036 C-250.90023638 480.98013542 -255.51912114 481.2533141 -260.13804626 481.52584648 C-262.34841741 481.65645631 -264.5587552 481.78763215 -266.76905823 481.91938972 C-269.8608968 482.10332765 -272.95288193 482.28457103 -276.04492188 482.46508789 C-276.95318222 482.51962128 -277.86144257 482.57415466 -278.79722595 482.63034058 C-283.54154979 482.9042728 -288.24778171 483.05520737 -293 483 C-293.1531366 482.43643799 -293.30627319 481.87287598 -293.46405029 481.29223633 C-298.7622395 461.88656521 -304.60116285 442.65947516 -310.50415039 423.43151855 C-311.50850893 420.15724396 -312.50976492 416.88202416 -313.51095963 413.60678101 C-314.48630595 410.41673301 -315.46290071 407.22706838 -316.43993378 404.03753662 C-316.90100702 402.53227738 -317.36185408 401.02694883 -317.82245636 399.52154541 C-321.68047993 386.35855907 -321.68047993 386.35855907 -326.50024414 373.53955078 C-328.32750843 369.22705237 -329.66475265 364.85297402 -330.99609375 360.3671875 C-331.2709108 359.45349396 -331.54572784 358.53980042 -331.82887268 357.59841919 C-332.70226095 354.69175006 -333.57003991 351.78344318 -334.4375 348.875 C-335.01588997 346.94519675 -335.59466268 345.01550816 -336.17382812 343.0859375 C-337.01582766 340.280474 -337.85754896 337.4749315 -338.69760132 334.66888428 C-340.76412942 327.76850337 -342.86372291 320.87915221 -345 314 C-346.09332642 314.00785522 -346.09332642 314.00785522 -347.20874023 314.01586914 C-405.19952906 314.37668448 -405.19952906 314.37668448 -425 297 C-425.65355469 296.44054687 -426.30710937 295.88109375 -426.98046875 295.3046875 C-442.29863203 281.17895609 -452.35299818 259.6713368 -453.3828125 238.984375 C-454.03157433 215.91475506 -448.91810535 195.35134472 -433 178 C-432.34773438 177.25621094 -431.69546875 176.51242187 -431.0234375 175.74609375 C-414.84108135 158.32127205 -389.72768711 146.84137616 -365.98071289 145.87744141 C-337.99423599 145.22965173 -337.99423599 145.22965173 -325 149 C-325 150.32 -325 151.64 -325 153 C-325.73822998 153.12004395 -326.47645996 153.24008789 -327.23706055 153.36376953 C-359.14889114 158.62262945 -395.4321847 164.8582654 -416.25 192.3125 C-425.62805074 205.8964644 -430.57391351 219.36898059 -429 236 C-426.23199743 248.60482892 -419.92159316 257.90683775 -411 267 C-410.46890625 267.55558594 -409.9378125 268.11117188 -409.390625 268.68359375 C-400.74658133 276.90434662 -388.59647325 281.99822783 -377 284 C-375.0509375 284.3403125 -375.0509375 284.3403125 -373.0625 284.6875 C-363.46331847 285.63556731 -354.25464513 284.85032217 -344.74609375 283.4453125 C-339.1489787 282.77996201 -333.62417054 282.86357183 -328 283 C-323.35067765 292.23672114 -320.40596277 301.82447676 -317.4375 311.6875 C-316.50688234 314.77730408 -315.56670367 317.86397443 -314.62109375 320.94921875 C-314.31467201 321.98389534 -314.31467201 321.98389534 -314.00205994 323.03947449 C-312.48295136 327.99377813 -310.40974267 332.41088363 -308 337 C-304.36681866 335.61428713 -300.96692387 333.99795863 -297.53515625 332.171875 C-296.49480225 331.62233154 -295.45444824 331.07278809 -294.38256836 330.5065918 C-293.2869458 329.9269165 -292.19132324 329.34724121 -291.0625 328.75 C-283.21769849 324.63051199 -275.43772691 320.71067808 -267.22265625 317.38671875 C-264.17327405 316.07456035 -261.29227599 314.60462788 -258.36425781 313.04907227 C-248.62654473 307.91370738 -238.64517972 304.72401202 -228 302 C-227.23880859 301.80422363 -226.47761719 301.60844727 -225.69335938 301.40673828 C-200.77090358 295.18698853 -175.52704477 294.51563942 -150 295 C-152.63660841 297.80797129 -154.58184943 298.73036427 -158.3125 299.8125 C-159.47265625 300.1528125 -160.6328125 300.493125 -161.828125 300.84375 C-164.89399319 301.70423901 -167.96893782 302.52757789 -171.046875 303.34375 C-200.84972546 311.25774367 -228.62310938 322.83473317 -256 337 C-248.02544872 336.57053631 -241.55754409 334.14964487 -234.1875 331.1875 C-231.60300207 330.17431388 -229.01341394 329.17471317 -226.421875 328.1796875 C-225.745233 327.91982559 -225.068591 327.65996368 -224.3714447 327.39222717 C-162.80519206 303.93762402 -79.0464316 276.08365262 -12.94335938 293.54321289 C-9.97035214 294.24201899 -7.03877601 294.058438 -4 294 C-4.52289539 286.33367889 -6.39410413 279.19651197 -8.53613281 271.84545898 C-9.11765778 269.8378477 -9.67653094 267.82484686 -10.234375 265.81054688 C-15.21807814 247.96452324 -15.21807814 247.96452324 -27.49609375 235.015625 C-33.53881585 232.56459887 -39.52249276 231.6589639 -46 231.375 C-46.77432373 231.33850342 -47.54864746 231.30200684 -48.34643555 231.2644043 C-82.26604084 229.83730099 -116.43953986 231.96028107 -150 237 C-151.0533252 237.15774902 -152.10665039 237.31549805 -153.19189453 237.47802734 C-194.45292192 244.02793546 -234.82907229 263.52867477 -272.88092041 280.07669067 C-289.91540452 287.47668083 -289.91540452 287.47668083 -295 287 C-294.14627218 278.12123071 -288.05634765 272.94151661 -282 267 C-280.72576172 265.74509766 -280.72576172 265.74509766 -279.42578125 264.46484375 C-233.35246855 221.07267329 -169.41377981 205.55808057 -108.93359375 193.8203125 C-107.53270508 193.54646729 -107.53270508 193.54646729 -106.10351562 193.26708984 C-104.38627413 192.93402048 -102.66759339 192.60824661 -100.94726562 192.29150391 C-97.40136047 191.6146001 -95.04275753 191.02850502 -92 189 C-83.44174087 161.09263328 -93.52505244 129.54101231 -105 104 C-99.06740806 103.61752631 -96.73168302 105.04868318 -92.296875 108.76171875 C-78.57861732 122.13002088 -73.55259916 138.7829414 -69.375 156.8125 C-68.69856388 159.71251424 -68.01648731 162.61061111 -67.31655884 165.50505066 C-66.88507573 167.29039502 -66.46661475 169.0789601 -66.0640564 170.87104797 C-64.66728506 176.66561309 -62.45122173 181.14409135 -59 186 C-49.5841362 181.73941701 -44.21556131 168.40739677 -40.50390625 159.20703125 C-32.55195033 138.00014944 -32.17305994 115.07349556 -36.34375 93.03125 C-37.02964416 89.29455578 -37.11980741 85.79390138 -37 82 C-31.9141016 83.90311037 -30.73834393 87.69973926 -28.51953125 92.37890625 C-16.30007188 121.49828629 -18.19956319 149.92622364 -25 180 C-20.60380074 176.61442126 -17.42949081 173.24456639 -14.5 168.5 C-14.11690674 167.88833984 -13.73381348 167.27667969 -13.33911133 166.64648438 C-0.20334161 145.23228518 4.44106191 120.22814045 0.38671875 95.3515625 C-2.43856278 83.67705116 -8.27006826 71.99254259 -16.75 63.41796875 C-18 62 -18 62 -18 60 C-18.58265625 59.73445313 -19.1653125 59.46890625 -19.765625 59.1953125 C-22.06611001 57.96463346 -23.77511875 56.57339787 -25.75 54.875 C-43.19865128 41.10580072 -64.92660131 35.96066205 -86.7734375 38.42578125 C-127.56525439 45.63734975 -166.87391825 76.59225587 -196.2265625 104.40234375 C-198.36269578 106.4030883 -200.52279514 108.31834918 -202.7421875 110.22265625 C-207.56252736 114.41759025 -212.01973702 118.94782268 -216.5 123.5 C-221.59573905 128.67753261 -226.70784768 133.7388409 -232.22216797 138.47167969 C-234.63871826 140.54907667 -236.97188487 142.71275212 -239.3125 144.875 C-243.77739026 148.94737244 -248.36608155 152.80628598 -253.0703125 156.59765625 C-255.73824362 158.78535977 -258.34468851 161.02497292 -260.94311523 163.29370117 C-297.58720534 195.19893344 -335.13675905 211.24406998 -384 210 C-384 209.01 -384 208.02 -384 207 C-382.75802856 206.55684448 -382.75802856 206.55684448 -381.4909668 206.10473633 C-344.5686601 192.83693562 -311.45186539 178.45646313 -285.39599609 148.13330078 C-280.12707302 142.00618765 -274.43117013 136.37360017 -268.671875 130.7109375 C-264.45599922 126.53808086 -260.4120006 122.294734 -256.54589844 117.79541016 C-254.46122511 115.37426556 -252.29284146 113.03417013 -250.125 110.6875 C-246.83567762 107.08608829 -243.67982364 103.42692725 -240.625 99.625 C-233.65571794 91.01155633 -226.05996949 82.9768288 -218.1875 75.1875 C-214.63299456 71.66838793 -211.2536068 68.09540893 -208.0078125 64.29296875 C-204.68064406 60.49326471 -201.20795652 56.82829255 -197.76049805 53.13793945 C-194.92634857 50.09712048 -192.13289557 47.04059972 -189.4375 43.875 C-180.58229536 33.69585545 -170.84070531 24.9948285 -160 17 C-158.40865234 15.82630859 -158.40865234 15.82630859 -156.78515625 14.62890625 C-111.96597256 -17.33731005 -49.38556538 -28.65517396 0 0 Z M-85.59936523 583.54467773 C-86.28880219 583.70888214 -86.97823914 583.87308655 -87.68856812 584.04226685 C-89.97887122 584.58814936 -92.26875492 585.13576719 -94.55859375 585.68359375 C-96.14420399 586.06237092 -97.72982114 586.44111913 -99.31544495 586.81983948 C-102.64384392 587.61515281 -105.97201112 588.41142832 -109.30004883 589.20825195 C-113.57137434 590.23075183 -117.84348167 591.24994354 -122.115798 592.26829433 C-125.39235783 593.04984817 -128.66838319 593.8336238 -131.94426155 594.61802864 C-133.51937924 594.99480801 -135.09469041 595.37077945 -136.67019463 595.74593925 C-138.87110769 596.27027577 -141.07125717 596.79770485 -143.27124023 597.32592773 C-144.52509018 597.6257103 -145.77894012 597.92549286 -147.07078552 598.23435974 C-149.90923318 598.86857893 -149.90923318 598.86857893 -152 600 C-151.23843639 614.33462323 -150.47356108 628.66906649 -149.7049036 643.00331116 C-149.34806852 649.6595178 -148.99228493 656.31577635 -148.63891602 662.97216797 C-148.29775635 669.39784004 -147.95381936 675.82335803 -147.60796928 682.2487793 C-147.47661177 684.69826999 -147.34624924 687.14781425 -147.21690559 689.59741211 C-147.03535248 693.03253712 -146.85023906 696.46745337 -146.66430664 699.90234375 C-146.58554291 701.4160984 -146.58554291 701.4160984 -146.50518799 702.96043396 C-146.20944962 708.34928149 -145.74134451 713.65369388 -145 719 C-137.00331056 720.30849276 -129.00594074 721.61271168 -121.00767231 722.91151428 C-117.29358826 723.51476459 -113.57975378 724.11947171 -109.86645508 724.72753906 C-106.28141714 725.31454769 -102.69576949 725.89768906 -99.10967064 726.47817993 C-97.74315262 726.70007354 -96.3768581 726.92334828 -95.0107975 727.14804077 C-93.09414399 727.46305128 -91.17660367 727.77265156 -89.2590332 728.08203125 C-87.62355278 728.34850464 -87.62355278 728.34850464 -85.95503235 728.62036133 C-82.67001295 729.10618721 -82.67001295 729.10618721 -78 729 C-78 680.49 -78 631.98 -78 582 C-80.49375031 582 -83.21034243 582.97464126 -85.59936523 583.54467773 Z M-279.28564453 624.56054688 C-279.92967224 624.72635757 -280.57369995 624.89216827 -281.23724365 625.06300354 C-283.36969764 625.6126314 -285.50124935 626.16567826 -287.6328125 626.71875 C-289.10963605 627.10010454 -290.58651462 627.48124606 -292.06344604 627.86218262 C-295.95365789 628.86617535 -299.84311373 629.87306721 -303.73242188 630.8805542 C-307.70007035 631.90779054 -311.66842329 632.9322977 -315.63671875 633.95703125 C-323.42517325 635.968676 -331.2128316 637.98338247 -339 640 C-338.10693288 649.02347651 -337.21170835 658.04673564 -336.31375217 667.06972694 C-335.89683361 671.25975972 -335.48064998 675.44986274 -335.06616211 679.64013672 C-334.66590509 683.68626482 -334.26369641 687.73219463 -333.86015129 691.77799606 C-333.7067653 693.31922929 -333.55407485 694.8605319 -333.40210152 696.40190506 C-333.18862686 698.56581501 -332.97264883 700.72946188 -332.75610352 702.89306641 C-332.63396988 704.12328522 -332.51183624 705.35350403 -332.38600159 706.6210022 C-332.02731758 709.76086618 -331.51954762 712.88271428 -331 716 C-308.89 716 -286.78 716 -264 716 C-264.52400391 708.24822266 -264.52400391 708.24822266 -265.05859375 700.33984375 C-265.28190859 697.0358078 -265.50521935 693.73177158 -265.72851562 690.42773438 C-266.08174772 685.20108783 -266.4349937 679.97444223 -266.78833008 674.74780273 C-267.07368495 670.5267483 -267.35897113 666.30568924 -267.64421272 662.08462715 C-267.75221449 660.48656619 -267.86023964 658.8885068 -267.96829033 657.29044914 C-268.0713943 655.76550998 -268.17441902 654.24056545 -268.27735996 652.71561527 C-268.37626124 651.25330093 -268.47560716 649.79101658 -268.57543087 648.32876492 C-268.81627295 644.78908917 -269.0478261 641.24923584 -269.26126099 637.70779419 C-269.30361154 637.02334764 -269.34596209 636.33890108 -269.38959599 635.63371372 C-269.50418263 633.77306391 -269.61496937 631.91218119 -269.72547913 630.05128479 C-269.94888537 627.56813637 -270.29454411 625.38095089 -271 623 C-273.90501222 623 -276.47285632 623.83328604 -279.28564453 624.56054688 Z " fill="#00C850" transform="translate(661,95)"/>
<path d="M0 0 C0 48.84 0 97.68 0 148 C10.64765625 146.03675781 21.2953125 144.07351563 32.265625 142.05078125 C39.06508841 140.79744048 45.86455914 139.54413962 52.6640625 138.29101562 C63.42488836 136.30782664 74.18568649 134.3244881 84.94628906 132.34008789 C92.78825515 130.89392439 100.63032534 129.4483269 108.47251296 128.00336522 C112.61167454 127.24068508 116.75078898 126.47775149 120.88977814 125.71413612 C129.17262872 124.18615329 137.45601096 122.66117997 145.74120593 121.14595407 C149.21868966 120.50993075 152.69582266 119.87212095 156.17216492 119.2298851 C160.07171316 118.50957994 163.97277747 117.7977258 167.87402344 117.08666992 C169.02116947 116.87355069 170.16831551 116.66043146 171.35022354 116.44085407 C172.40751537 116.24958533 173.46480721 116.05831659 174.55413818 115.86125183 C175.46673275 115.69387103 176.37932732 115.52649023 177.31957626 115.35403728 C180 115 180 115 186 115 C186 246.01 186 377.02 186 512 C139.98831855 512 139.98831855 512 122.84375 511.78125 C120.92794024 511.75862456 119.01212797 511.73621034 117.09631348 511.71398926 C112.21750272 511.65686833 107.33872984 511.59701536 102.45996094 511.53643799 C97.41603667 511.4743458 92.37207943 511.41505129 87.328125 511.35546875 C77.55205064 511.23960121 67.77601425 511.12082583 58 511 C57.82168336 464.60454383 58.28049088 418.22176133 58.83422244 371.83015954 C58.92779763 363.95813291 59.01591475 356.08605185 59.10283273 348.21394926 C59.18833903 340.48423958 59.27687751 332.7545687 59.36784559 325.02492136 C59.42147879 320.46667897 59.47411842 315.9084318 59.5238781 311.35014534 C59.91772325 275.50358474 59.91772325 275.50358474 61 259 C60.4111159 259.13535093 59.82223181 259.27070187 59.21550274 259.41015434 C55.0745353 260.3487116 50.97420025 261.23750181 46.7590332 261.77783203 C45.83810379 261.89780548 44.91717438 262.01777893 43.96833801 262.14138794 C43.00554428 262.26230804 42.04275055 262.38322815 41.05078125 262.5078125 C40.03453171 262.63815887 39.01828217 262.76850525 37.97123718 262.90280151 C35.83777437 263.17536345 33.70404566 263.4458514 31.57006836 263.71435547 C28.31089346 264.12520252 25.05289325 264.54457108 21.79492188 264.96484375 C19.71360637 265.22967567 17.63222819 265.49401562 15.55078125 265.7578125 C14.58191483 265.88278107 13.6130484 266.00774963 12.61482239 266.13650513 C11.70334946 266.25017426 10.79187653 266.36384338 9.8527832 266.48095703 C9.05830276 266.58151398 8.26382233 266.68207092 7.44526672 266.78567505 C4.64002621 267.03155131 1.81599529 267 -1 267 C-1 347.19 -1 427.38 -1 510 C-4.3010391 510.82525978 -6.81518585 511.16850603 -10.16229343 511.27922153 C-11.21197601 511.31604654 -12.26165858 511.35287154 -13.34314972 511.39081246 C-14.49517048 511.4268091 -15.64719123 511.46280574 -16.8341217 511.49989319 C-18.05892744 511.54158314 -19.28373318 511.58327309 -20.54565424 511.62622637 C-23.94716487 511.74112461 -27.34876259 511.85212695 -30.75045288 511.96149552 C-34.41876151 512.08037644 -38.08690205 512.20424678 -41.75506592 512.32749939 C-48.94371175 512.56824951 -56.1325024 512.80437714 -63.32135165 513.03896577 C-71.69660917 513.31244505 -80.07171255 513.5905094 -88.44681221 513.86877399 C-103.39728719 514.36535226 -118.34789558 514.85779353 -133.29858398 515.34790039 C-147.79542756 515.8231335 -162.2921742 516.30119215 -176.78881836 516.7824707 C-178.12654137 516.82688155 -178.12654137 516.82688155 -179.49128909 516.87218959 C-180.38158064 516.90174676 -181.2718722 516.93130393 -182.18914229 516.96175677 C-183.98183599 517.0212719 -185.77452975 517.08078561 -187.56722355 517.14029789 C-188.45138691 517.16964965 -189.33555027 517.19900142 -190.24650646 517.22924263 C-204.07036163 517.68803198 -217.89430594 518.14412471 -231.71825795 518.59998547 C-236.72271953 518.76505151 -241.72716712 518.93053435 -246.7316047 519.09632618 C-254.67656677 519.35953136 -262.62156521 519.6215751 -270.5666448 519.88121111 C-274.19531804 519.99981462 -277.82397072 520.11897054 -281.45257378 520.23970413 C-285.39398271 520.37081964 -289.33548139 520.49909062 -293.2769928 520.62709045 C-294.98160135 520.6844315 -294.98160135 520.6844315 -296.72064644 520.74293095 C-303.4831528 520.95960521 -310.23411872 521.04527991 -317 521 C-316.8584453 517.95807987 -316.71190099 514.91653653 -316.5625 511.875 C-316.52318359 511.0190625 -316.48386719 510.163125 -316.44335938 509.28125 C-316.40146484 508.44335938 -316.35957031 507.60546875 -316.31640625 506.7421875 C-316.26141968 505.59532471 -316.26141968 505.59532471 -316.20532227 504.42529297 C-315.96469945 501.58302535 -315.48070531 498.81063621 -315 496 C-315.91263611 496.00261841 -316.82527222 496.00523682 -317.76556396 496.00793457 C-355.57921388 496.10416142 -393.39091932 495.81233641 -431.20339918 495.55461788 C-440.25614833 495.49297709 -449.30890866 495.43305864 -458.36167002 495.37324238 C-476.9077925 495.25066214 -495.45390081 495.1260523 -514 495 C-514.23442304 481.25369478 -513.49697986 467.59488368 -512.73071289 453.87402344 C-512.59403691 451.36901833 -512.4577407 448.86399247 -512.3217926 446.35894775 C-511.99188293 440.29828139 -511.65797109 434.23784791 -511.32215197 428.17750713 C-510.93039221 421.10432519 -510.54334216 414.03088776 -510.15646594 406.95743731 C-509.46569156 394.33047781 -508.77078972 381.70374892 -508.07348633 369.07714844 C-507.39836014 356.85204744 -506.7260321 344.62679692 -506.05688477 332.40136719 C-506.01563223 331.64768473 -505.9743797 330.89400228 -505.93187708 330.11748096 C-505.89069321 329.36504109 -505.84950934 328.61260122 -505.80707747 327.83736014 C-505.72413658 326.32202253 -505.64119455 324.80668499 -505.55825138 323.2913475 C-505.51733726 322.54385702 -505.47642314 321.79636654 -505.43426919 321.02622484 C-504.7941648 309.33379967 -504.15150491 297.64151479 -503.50858646 285.94924407 C-503.27643041 281.72662303 -503.04464753 277.50398171 -502.81313998 273.28132507 C-502.41147634 265.9552389 -502.00805525 258.62925222 -501.60272789 251.30336761 C-501.46872017 248.87669038 -501.33528 246.44998173 -501.20246124 244.02323914 C-501.02047492 240.70011576 -500.83637292 237.3771159 -500.65174866 234.05413818 C-500.60018822 233.10392343 -500.54862779 232.15370868 -500.49550492 231.17469954 C-500.11801872 224.43854994 -499.58853818 217.72086514 -499 211 C-439.38353175 201.01842766 -379.74470776 191.18048235 -320.08530474 181.45895827 C-309.70521885 179.76744706 -299.3254536 178.07397224 -288.94570065 176.38041949 C-234.96601098 167.57337691 -180.98329247 158.78492798 -127 150 C-126.67 135.48 -126.34 120.96 -126 106 C-130.29 106.99 -134.58 107.98 -139 109 C-141.53748411 109.50437811 -144.07905172 109.9892004 -146.6262207 110.44213867 C-147.28160828 110.5596196 -147.93699585 110.67710052 -148.61224365 110.79814148 C-150.71621755 111.17451558 -152.82096926 111.54631317 -154.92578125 111.91796875 C-156.40940897 112.18243658 -157.89298449 112.44719737 -159.37651062 112.7122345 C-163.23425934 113.40064064 -167.09269211 114.08513198 -170.95129395 114.76873779 C-175.60602714 115.59425929 -180.25987275 116.42476889 -184.91387177 117.25441742 C-191.94191794 118.50671399 -198.97104423 119.75277126 -206 121 C-208.97 132.55 -211.94 144.1 -215 156 C-224.22898358 156.60704834 -233.45807068 157.2122928 -242.6875 157.8125 C-243.37852058 157.85744095 -244.06954117 157.9023819 -244.78150177 157.94868469 C-273.17895234 159.79378543 -301.58489902 161.44859054 -330 163 C-330.82190767 150.28283973 -331.34431358 137.56858869 -331.75390625 124.83203125 C-331.81968309 122.82069218 -331.88551585 120.80935494 -331.95140076 118.79801941 C-332.0882848 114.60017894 -332.22329916 110.40228304 -332.35717773 106.2043457 C-332.49258759 101.96627599 -332.63128892 97.7283357 -332.77319336 93.49047852 C-334.12427782 53.10911657 -334.12427782 53.10911657 -334.15234375 34.07421875 C-334.15528946 32.83533401 -334.15823517 31.59644928 -334.16127014 30.32002258 C-334.12920887 22.12920887 -334.12920887 22.12920887 -333 21 C-331.2368248 20.7973215 -329.46606016 20.66046128 -327.69477844 20.54898739 C-326.53691676 20.47384503 -325.37905508 20.39870268 -324.18610668 20.32128328 C-322.25380687 20.20308767 -322.25380687 20.20308767 -320.2824707 20.08250427 C-318.91286121 19.99541906 -317.54327771 19.90792435 -316.17371845 19.82005268 C-312.39284291 19.57867232 -308.61162125 19.34314889 -304.83032084 19.10853159 C-300.7591757 18.85491865 -296.68837111 18.59594803 -292.61752319 18.33761597 C-284.63584321 17.83194964 -276.65386054 17.3312222 -268.67177176 16.83205514 C-259.38652503 16.25117051 -250.10160837 15.66509241 -240.81670868 15.07869089 C-224.25596569 14.0329176 -207.69496021 12.99136188 -191.13378906 11.95239258 C-175.04444837 10.94301551 -158.95524365 9.93151119 -142.86621094 8.91723633 C-141.87535653 8.85477214 -140.88450213 8.79230796 -139.86362183 8.72795092 C-135.88146879 8.47690456 -131.89931668 8.22584334 -127.91716582 7.97476235 C-97.41835819 6.05178457 -66.9194201 4.13086809 -36.42009354 2.21613693 C-33.21151526 2.01470043 -30.00294573 1.81312543 -26.794384 1.6114254 C-23.11081431 1.37987662 -19.42722586 1.14862879 -15.74362123 0.91763652 C-13.76703253 0.7936181 -11.79046268 0.66929956 -9.81389332 0.54497331 C-8.0771008 0.4361714 -8.0771008 0.4361714 -6.30522156 0.32517147 C-5.29760615 0.26192053 -4.28999075 0.19866958 -3.25184155 0.13350195 C-1 0 -1 0 0 0 Z M-127.57275391 263.43701172 C-128.22361465 263.58985626 -128.8744754 263.74270081 -129.5450592 263.900177 C-131.6900319 264.4053299 -133.83333834 264.91717053 -135.9765625 265.4296875 C-137.46816643 265.78380738 -138.95981545 266.1377374 -140.45150757 266.4914856 C-143.5742154 267.23324222 -146.69605511 267.97853225 -149.81738281 268.72607422 C-153.82164384 269.68458701 -157.82835705 270.63237698 -161.83584023 271.57731438 C-164.91503811 272.30494832 -167.99263405 273.03917998 -171.06980515 273.7753334 C-172.54688152 274.12765686 -174.0245063 274.47768919 -175.5026741 274.82540512 C-177.56550134 275.31149798 -179.62594644 275.80664744 -181.68603516 276.30419922 C-182.85977692 276.58399628 -184.03351868 276.86379333 -185.24282837 277.15206909 C-188.11062357 277.79861457 -188.11062357 277.79861457 -190 280 C-190.20551711 281.98390842 -190.20551711 281.98390842 -190.01945496 284.28004456 C-189.97316452 285.17851608 -189.92687408 286.07698761 -189.87918091 287.00268555 C-189.81745697 287.99123535 -189.75573303 288.97978516 -189.69213867 289.99829102 C-189.63551559 291.03751205 -189.57889252 292.07673309 -189.52055359 293.14744568 C-189.32981374 296.60025019 -189.12401808 300.05198414 -188.91796875 303.50390625 C-188.78213805 305.90082601 -188.64716508 308.29779451 -188.51301575 310.69480896 C-188.22911934 315.72994963 -187.93843023 320.76463447 -187.64233398 325.79907227 C-187.26360252 332.23892608 -186.89592872 338.67934457 -186.5326643 345.12008762 C-186.1855143 351.26906622 -185.83339388 357.4177568 -185.48046875 363.56640625 C-185.41366598 364.7352643 -185.34686321 365.90412235 -185.27803612 367.10840034 C-185.08672244 370.43774548 -184.89196114 373.76687015 -184.69604492 377.09594727 C-184.64039368 378.07032745 -184.58474243 379.04470764 -184.52740479 380.0486145 C-184.18882768 385.72688851 -183.67526185 391.35158593 -183 397 C-158.35713995 401.26677188 -158.35713995 401.26677188 -133.6875 405.375 C-132.68275635 405.54225586 -131.6780127 405.70951172 -130.64282227 405.88183594 C-129.71268311 406.03168945 -128.78254395 406.18154297 -127.82421875 406.3359375 C-127.03104248 406.46532715 -126.23786621 406.5947168 -125.4206543 406.72802734 C-122.6298656 407.04158646 -119.80834843 407 -117 407 C-117 359.15 -117 311.3 -117 262 C-120.86589432 262 -123.82671641 262.5503101 -127.57275391 263.43701172 Z M-317.10791016 303.45288086 C-318.36576324 303.7699852 -319.62361633 304.08708954 -320.91958618 304.4138031 C-322.29279095 304.76396966 -323.66594862 305.11432095 -325.0390625 305.46484375 C-326.44480103 305.82138389 -327.85059403 306.17770933 -329.25643921 306.53382874 C-332.20085252 307.28056473 -335.14459472 308.02987803 -338.08789062 308.78100586 C-341.86762042 309.7453734 -345.64893277 310.70336142 -349.43076515 311.65944576 C-352.33265447 312.39380487 -355.23368906 313.13149414 -358.13447189 313.87021065 C-359.52892369 314.22489603 -360.92364127 314.57853815 -362.31862259 314.93113518 C-364.2635682 315.42327799 -366.2072582 315.9203751 -368.15087891 316.41772461 C-369.25879791 316.69974228 -370.36671692 316.98175995 -371.50820923 317.27232361 C-373.92032603 317.76014623 -373.92032603 317.76014623 -375 319 C-375.35833227 327.16588369 -374.35769888 335.2125956 -373.46875 343.31640625 C-373.33114258 344.60478394 -373.19353516 345.89316162 -373.05175781 347.22058105 C-372.53969258 352.00177912 -372.01936345 356.78208921 -371.5 361.5625 C-370.345 372.266875 -369.19 382.97125 -368 394 C-345.89 394 -323.78 394 -301 394 C-302.0392853 378.8611399 -302.0392853 378.8611399 -303.08398438 363.72265625 C-303.51135995 357.54715172 -303.93810525 351.37160822 -304.36108398 345.19580078 C-304.70218896 340.2159945 -305.04613147 335.23639154 -305.39203072 330.25691605 C-305.52341052 328.3584246 -305.65377289 326.45986247 -305.78309441 324.56122971 C-305.96458981 321.89918592 -306.14972184 319.23741791 -306.33569336 316.57568359 C-306.38820251 315.79309174 -306.44071167 315.01049988 -306.49481201 314.20419312 C-306.78684813 310.08285143 -307.24291741 306.06879922 -308 302 C-311.29921185 302 -313.90802232 302.64182107 -317.10791016 303.45288086 Z " fill="#00C850" transform="translate(2140,420)"/>
<path d="M0 0 C8.63765643 -0.12387434 17.16804132 0.2462866 25.78131104 0.87316895 C27.13220249 0.9683993 28.48312022 1.06325755 29.83406138 1.15778017 C33.51273629 1.41623379 37.19102087 1.67990309 40.86925912 1.94448876 C44.84841752 2.22977957 48.82792363 2.51014214 52.80738831 2.79112244 C59.69093571 3.27782185 66.57425843 3.76759962 73.45743561 4.25950623 C83.4091899 4.97070433 93.36127363 5.67720089 103.31344232 6.38257343 C119.46261553 7.52729376 135.61151838 8.67578296 151.76025391 9.82666016 C167.44142819 10.94420736 183.12272788 12.05996845 198.80419922 13.17333984 C200.25563054 13.27639119 200.25563054 13.27639119 201.73638371 13.38152438 C206.59095718 13.72618714 211.44553314 14.07081492 216.30011034 14.4154253 C256.53379323 17.27152686 296.76703872 20.13375248 337 23 C336.8459346 26.15003876 336.69047517 29.30000734 336.53479004 32.44996643 C336.47024313 33.77021749 336.47024313 33.77021749 336.40439224 35.11714029 C335.98416772 43.59453505 335.43228658 52.060226 334.84375 60.52734375 C334.73540256 62.10103372 334.62712785 63.67472871 334.5189209 65.24842834 C334.29501793 68.49766145 334.0696419 71.7467882 333.84326172 74.99584961 C333.55394621 79.15121953 333.26943344 83.30690376 332.98607635 87.46268368 C332.76526728 90.69104085 332.54148578 93.91918688 332.31684875 97.14727974 C332.21057001 98.68096401 332.1053196 100.21471992 332.00114441 101.74854851 C331.85607501 103.87938797 331.70687717 106.00990033 331.55664062 108.14038086 C331.47305298 109.34802597 331.38946533 110.55567108 331.30334473 111.7999115 C331.03746152 114.60480544 330.57576061 117.24712375 330 120 C318.73293151 120.27156777 307.61360923 119.42090812 296.38964844 118.54711914 C294.33342613 118.39069011 292.27717108 118.23469108 290.22088623 118.0790863 C284.67129387 117.65787815 279.12218559 117.23058394 273.5731535 116.80206609 C267.7507064 116.35340333 261.92784944 115.91012189 256.1050415 115.46617126 C246.3337707 114.72040464 236.56278786 113.97095895 226.79199219 113.21899414 C214.26415624 112.25486432 201.73586805 111.29674777 189.20742416 110.34055424 C178.4129286 109.51665809 167.61863843 108.69008289 156.82438374 107.86303782 C153.36472999 107.59806638 149.90504958 107.33344517 146.44536591 107.06886482 C141.00494422 106.65262802 135.56465334 106.23471921 130.12445831 105.81553078 C128.13192251 105.66222668 126.13934695 105.5094383 124.14672852 105.35721207 C121.42011374 105.14880995 118.69365372 104.93848532 115.96722412 104.72767639 C115.18520811 104.66833406 114.4031921 104.60899173 113.59747863 104.54785115 C108.38345559 104.14189594 103.19543065 103.59941598 98 103 C98.00466782 103.97862 98.00933563 104.95723999 98.0141449 105.96551514 C98.0451503 115.38557394 97.89572468 124.78689744 97.59765625 134.203125 C97.55512071 135.58314744 97.51267788 136.96317273 97.47032166 138.34320068 C97.38209607 141.19679411 97.29192146 144.05031779 97.20043945 146.90380859 C97.08366652 150.55504625 96.97327883 154.20644775 96.86443424 157.85792923 C96.77907375 160.69073167 96.6897303 163.52339812 96.59924126 166.35604095 C96.53629193 168.35456931 96.47722434 170.35321872 96.41822815 172.35186768 C96.37826218 173.56122986 96.3382962 174.77059204 96.29711914 176.01660156 C96.26380997 177.07864807 96.23050079 178.14069458 96.19618225 179.23492432 C96.02532364 181.64307786 95.61884518 183.68166139 95 186 C95.893427 185.92554751 96.786854 185.85109503 97.70735455 185.77438641 C122.62786148 183.70594955 147.55921301 181.83902634 172.50267053 180.07073998 C177.50473816 179.71573372 182.50665512 179.35861602 187.5085907 179.00175476 C196.91373734 178.33105383 206.31901143 177.6621586 215.7243368 176.99396914 C226.46028132 176.23115486 237.19607593 175.46624071 247.93186057 174.7011801 C269.95441171 173.13184017 291.97714289 171.56503998 314 170 C315.62593685 196.38838486 317.25184443 222.77677153 318.87771988 249.16516018 C319.55911146 260.22431649 320.24050455 271.2834727 320.92192602 282.34262717 C321.06987069 284.74371881 321.2178126 287.14481063 321.36575174 289.54590261 C321.73245175 295.49750202 322.0991943 301.4490988 322.46602631 307.40069008 C323.18513639 319.06860725 323.90347142 330.73657126 324.62023926 342.40463257 C324.89712092 346.91022318 325.17410562 351.41580745 325.45117188 355.92138672 C325.51816945 357.01100606 325.58516703 358.1006254 325.65419483 359.2232635 C326.47722638 372.6016097 327.31105637 385.97920005 328.16208506 399.35579431 C328.45235388 403.92524812 328.74013497 408.49485943 329.02792239 413.06447011 C329.32036754 417.70100789 329.62014557 422.33703492 329.92144775 426.9730072 C330.06869744 429.30628618 330.21566973 431.6395827 330.36230469 433.97290039 C330.46135983 435.45153029 330.46135983 435.45153029 330.56241608 436.96003151 C331.09987628 445.68562865 331 454.19694443 331 463 C227.71 463 124.42 463 18 463 C18 445.76262687 18 445.76262687 18.53491211 438.08300781 C18.59182724 437.20781494 18.64874237 436.33262207 18.7073822 435.4309082 C18.89248151 432.60463196 19.08464856 429.77889265 19.27734375 426.953125 C19.40978936 424.96394949 19.54190929 422.97475227 19.67372131 420.98553467 C19.94882373 416.850488 20.22737461 412.71569307 20.50854492 408.58105469 C20.86890281 403.27871901 21.22114767 397.97588076 21.57096004 392.67284012 C21.84166216 388.58066911 22.11623351 384.48876501 22.39203072 380.39693451 C22.52351955 378.44014699 22.65388084 376.48328338 22.78309441 374.5263443 C22.96340609 371.80536887 23.14883636 369.08479052 23.33569336 366.36425781 C23.38820251 365.55704285 23.44071167 364.74982788 23.49481201 363.91815186 C23.71654058 360.75543575 23.99268243 358.0219527 25 355 C66.09206199 355.73468729 107.16806049 357.04268871 148.2466557 358.2989372 C157.94993894 358.59559759 167.65329259 358.88992453 177.35665107 359.18411171 C197.2378434 359.78692074 217.11895098 360.39248379 237 361 C236.88724731 360.02725128 236.77449463 359.05450256 236.6583252 358.05227661 C235.5975748 348.89959266 234.5380172 339.74677131 233.47963715 330.59381294 C232.93543314 325.88782991 232.39080418 321.18189686 231.84521484 316.47607422 C231.31902961 311.93748096 230.79394653 307.39876145 230.26963806 302.85995102 C230.06908181 301.12550151 229.86812369 299.39109843 229.66676331 297.6567421 C229.38551255 295.2336842 229.10567155 292.81046745 228.82617188 290.38720703 C228.74201523 289.66503998 228.65785858 288.94287292 228.57115173 288.19882202 C228 283.22810432 228 283.22810432 228 281 C226.44036734 281.17007317 226.44036734 281.17007317 224.84922695 281.34358215 C199.55294355 284.10189024 174.25619261 286.85587749 148.95894527 289.60533142 C136.72541833 290.9350445 124.49204732 292.26616255 112.2590332 293.60058594 C101.59709654 294.76362666 90.93487709 295.92403356 80.27230936 297.08127499 C74.62628782 297.6941483 68.98041695 298.30834202 63.33488274 298.9256897 C58.0206865 299.50676298 52.7061191 300.08431268 47.3912468 300.65916824 C45.44123678 300.87070801 43.49136559 301.08353211 41.54164696 301.29774094 C38.87761038 301.59023425 36.21311066 301.87808224 33.54844666 302.16479492 C32.39423773 302.29319622 32.39423773 302.29319622 31.21671146 302.42419147 C26.78223169 302.89548639 22.45972628 303.07849661 18 303 C16.5170653 285.44170711 15.32886249 267.87881051 14.30419922 250.28833008 C14.14649096 247.6145955 13.98857583 244.94087384 13.83041382 242.26716614 C13.4501659 235.83106099 13.07268671 229.39479652 12.69624268 222.95846788 C12.25682579 215.44708465 11.8146724 207.9358632 11.37246479 200.42464384 C10.5838347 187.02744677 9.79779381 173.63009906 9.01318359 160.23266602 C8.25296513 147.25174468 7.49062379 134.27095017 6.72607422 121.2902832 C5.8903914 107.10184888 5.05580419 92.91335095 4.22318661 78.72473639 C4.13446964 77.21292634 4.04575246 75.70111629 3.95703506 74.18930626 C3.91339928 73.44568723 3.86976349 72.7020682 3.8248054 71.93591527 C3.51779326 66.70508875 3.2100322 61.4743066 2.90200424 56.24353981 C2.52734948 49.88077354 2.15398645 43.51793299 1.78225695 37.15499512 C1.59274487 33.9115738 1.40249014 30.66819914 1.21109009 27.42488861 C1.0037552 23.90984225 0.79857954 20.39467636 0.59396362 16.87947083 C0.53307269 15.85566293 0.47218176 14.83185504 0.40944564 13.77702266 C0.35494471 12.83301024 0.30044378 11.88899783 0.24429131 10.91637897 C0.19677125 10.10593767 0.14925119 9.29549637 0.10029113 8.46049625 C-0.01474404 5.63827645 -0.01601395 2.82424761 0 0 Z " fill="#00C850" transform="translate(939,469)"/>
<path d="M0 0 C-0.73133262 22.93599515 -2.03978811 45.8381087 -3.32818604 68.74810791 C-3.5585759 72.85723193 -3.78626078 76.96650404 -4.01392365 81.07577991 C-4.23591794 85.07811951 -4.45931358 89.08037992 -4.68315125 93.08261681 C-4.78874704 94.97258207 -4.89399202 96.86256698 -4.99885559 98.75257301 C-5.55985505 108.84503519 -6.16125621 118.92609209 -7 129 C-16.87324508 126.26136191 -26.36568782 122.5647681 -35.9375 118.9375 C-38.61480443 117.92718891 -41.29256816 116.9181021 -43.97036743 115.90910339 C-45.7553174 115.23646954 -47.54012834 114.56346663 -49.32479858 113.89009094 C-57.20554048 110.91766668 -65.09950419 107.98195337 -73 105.0625 C-74.13171631 104.64411865 -75.26343262 104.2257373 -76.42944336 103.79467773 C-78.95269028 102.86237842 -81.47625095 101.93093874 -84 101 C-84.17030991 115.89984776 -83.63480337 130.7273495 -82.94140625 145.609375 C-82.83137188 148.03491756 -82.72167287 150.46047536 -82.61228943 152.88604736 C-82.38371338 157.93538571 -82.15235083 162.98458533 -81.91870117 168.03369141 C-81.62103925 174.46716447 -81.32853438 180.90085848 -81.03788853 187.33465195 C-80.81191538 192.33132204 -80.58416061 197.3279096 -80.35578728 202.32447052 C-80.24743797 204.69564615 -80.13940462 207.06683625 -80.03170967 209.43804169 C-79.47606196 221.6349004 -78.89753052 233.82282376 -78 246 C-76.95549683 246.09062965 -76.95549683 246.09062965 -75.88989258 246.18309021 C-69.29941887 246.75520419 -62.70907367 247.3287745 -56.11886597 247.90394497 C-52.73149329 248.19953232 -49.34407497 248.49457371 -45.95654297 248.78833008 C-42.05421619 249.12675274 -38.15210449 249.46761719 -34.25 249.80859375 C-33.04448486 249.91280136 -31.83896973 250.01700897 -30.59692383 250.12437439 C-29.45634521 250.22440262 -28.3157666 250.32443085 -27.140625 250.42749023 C-26.14579102 250.51409409 -25.15095703 250.60069794 -24.12597656 250.68992615 C-20.40701971 251.05881928 -16.70776112 251.53161615 -13 252 C-12.36100045 281.02824793 -11.72380293 310.05653493 -11.08908865 339.08487689 C-11.01399556 342.51914999 -10.93888725 345.95342275 -10.86376953 349.38769531 C-10.84133992 350.41316196 -10.84133992 350.41316196 -10.81845719 351.4593451 C-10.5769365 362.49985128 -10.33418575 373.54033008 -10.09097296 384.5807991 C-9.84107104 395.92617261 -9.59253428 407.27157533 -9.34516478 418.61700439 C-9.20633364 424.98244201 -9.06689798 431.34786505 -8.92597961 437.71325684 C-8.79313608 443.71478709 -8.66195655 449.7163515 -8.53200722 455.7179451 C-8.48424216 457.91076602 -8.43588938 460.10357424 -8.38687706 462.29636765 C-8.12117332 474.20008455 -7.92867773 486.09299097 -8 498 C-38.63269017 498.76928293 -69.26548683 499.53416069 -99.89843502 500.29309362 C-103.53482987 500.38318929 -107.17122381 500.47332159 -110.80761719 500.56347656 C-111.53139925 500.58142025 -112.25518132 500.59936394 -113.00089617 500.61785138 C-124.64036672 500.90649894 -136.27976152 501.19809695 -147.91912989 501.49083245 C-159.90864826 501.79230688 -171.89824514 502.09050156 -183.88791716 502.38580227 C-190.60272797 502.55127546 -197.31749321 502.71824911 -204.03217697 502.88882446 C-231.69114258 503.59051181 -259.33064362 504.25984035 -287 504 C-286.31177645 490.27660997 -284.92569321 476.64318605 -283.515625 462.97827148 C-283.26067906 460.48486509 -283.00600732 457.99143065 -282.75158691 455.49797058 C-282.1354854 449.46699431 -281.51648746 443.43632193 -280.89609909 437.40578567 C-280.17267168 430.37238818 -279.45261964 423.3386463 -278.73268557 416.30489052 C-277.44807093 403.75532226 -276.16044719 391.20606462 -274.87109375 378.65698242 C-273.62149229 366.49477291 -272.37401728 354.33234779 -271.12890625 342.16967773 C-271.05207249 341.41914226 -270.97523873 340.66860678 -270.89607668 339.8953278 C-270.81937227 339.14605273 -270.74266786 338.39677766 -270.66363907 337.62479728 C-269.24270587 323.74474461 -267.81993131 309.86488126 -266.39621282 295.98511402 C-265.89383146 291.08706015 -265.39196907 286.18895326 -264.89025879 281.29083061 C-264.21533319 274.70208405 -263.53881669 268.11350207 -262.86125183 261.52502632 C-262.61285302 259.10755423 -262.36492713 256.69003349 -262.11750793 254.27246094 C-261.77983202 250.97381831 -261.44043202 247.67535751 -261.10058594 244.37693787 C-261.00301624 243.4199408 -260.90544655 242.46294374 -260.8049202 241.47694677 C-260.30377832 236.63217285 -259.72831023 231.81602387 -259 227 C-245.61570706 226.87844739 -232.25278069 227.03945429 -218.875 227.4375 C-218.18197784 227.45714813 -217.48895569 227.47679626 -216.77493286 227.49703979 C-214.74305271 227.55553518 -212.71137458 227.61876485 -210.6796875 227.68359375 C-208.92760986 227.73858032 -208.92760986 227.73858032 -207.14013672 227.79467773 C-201.41701194 228.03259989 -195.7085983 228.53948506 -190 229 C-189.95902915 228.18506624 -189.95902915 228.18506624 -189.91723061 227.35366917 C-187.8099558 185.50576163 -185.51009089 143.66967794 -183.13453555 101.8362354 C-182.61963328 92.76829443 -182.10881175 83.70013501 -181.60123575 74.63178104 C-181.20190646 67.50180493 -180.79902064 60.37203544 -180.39337409 53.24241596 C-180.1535778 49.02636773 -179.91529031 44.81024751 -179.68079758 40.59390068 C-179.46323399 36.68353332 -179.24129168 32.77343997 -179.01584053 28.86351967 C-178.93398169 27.43042031 -178.85374517 25.99722727 -178.77520943 24.56394196 C-178.66836749 22.61847167 -178.5552453 20.67334924 -178.44174194 18.72825623 C-178.3801911 17.63936316 -178.31864025 16.5504701 -178.25522423 15.42858028 C-178 13 -178 13 -177 12 C-174.90422842 11.75598303 -172.80079313 11.57771044 -170.69645691 11.42417908 C-170.03028313 11.37432202 -169.36410936 11.32446497 -168.6777485 11.2730971 C-166.42894084 11.10595586 -164.17970703 10.9454627 -161.93041992 10.78491211 C-160.32411926 10.66692386 -158.71784747 10.54854205 -157.11160278 10.42979431 C-152.73320467 10.10735494 -148.35439995 9.79078468 -143.97548461 9.47545695 C-139.39111204 9.14459375 -134.80707079 8.80919744 -130.22297668 8.47450256 C-122.51159969 7.91223498 -114.79994981 7.35383241 -107.08813477 6.79760742 C-98.19305948 6.15598349 -89.29846623 5.50798244 -80.40410346 4.8565616 C-71.8395627 4.22947714 -63.27467038 3.60732056 -54.70961952 2.98724556 C-51.07146412 2.72375191 -47.43344344 2.45849905 -43.79552269 2.19178581 C-39.49570649 1.87674615 -35.19559784 1.5660363 -30.89523697 1.25852394 C-29.32469928 1.1455343 -27.75426453 1.0311023 -26.18395042 0.91504669 C-17.44575634 0.27025062 -8.76598082 -0.16359901 0 0 Z M-155 331 C-157.22757222 337.77567447 -159.45080521 344.55276186 -161.67114258 351.33081055 C-162.42569684 353.6325642 -163.1812142 355.93400237 -163.93774414 358.23510742 C-165.03009341 361.55823983 -166.11888032 364.88252208 -167.20703125 368.20703125 C-167.54152786 369.2220723 -167.87602448 370.23711334 -168.22065735 371.28291321 C-170.35093117 377.80596572 -172.25744408 384.36289034 -174 391 C-166.79856852 392.55900263 -159.61179566 393.64339256 -152.296875 394.5078125 C-151.21545227 394.63815887 -150.13402954 394.76850525 -149.01983643 394.90280151 C-146.7510848 395.17524431 -144.48209806 395.44573561 -142.21289062 395.71435547 C-138.74539301 396.12554632 -135.27893197 396.54477415 -131.8125 396.96484375 C-129.59901564 397.22964611 -127.38547579 397.49398518 -125.171875 397.7578125 C-124.14052429 397.88278107 -123.10917358 398.00774963 -122.04656982 398.13650513 C-117.33705618 398.68935256 -112.75231377 399.1602923 -108 399 C-107.70982114 392.61798941 -107.42572017 386.23572736 -107.14550781 379.85327148 C-107.04984575 377.68980022 -106.95287876 375.52638619 -106.85449219 373.36303711 C-106.27350076 360.5664045 -105.84226392 347.81057994 -106 335 C-122.31076195 333.24768298 -138.6310169 332.06013197 -155 331 Z " fill="#00C850" transform="translate(1585,426)"/>
<path d="M0 0 C0.27840323 15.31075739 -0.59860251 30.51112051 -1.53125 45.7890625 C-1.688656 48.43131926 -1.84564152 51.0735977 -2.0020752 53.71591187 C-2.36968353 59.90982534 -2.74265843 66.10340287 -3.11767817 72.29687154 C-3.54514539 79.36098825 -3.96645259 86.4254684 -4.38730335 93.48998189 C-5.25146317 107.99372816 -6.12331093 122.4970058 -7 137 C-14.90707345 138.3912695 -22.79925284 139.51551363 -30.78027344 140.37942505 C-31.90251407 140.50364047 -33.0247547 140.62785589 -34.18100262 140.75583541 C-37.90678318 141.16739745 -41.63306855 141.57418621 -45.359375 141.98095703 C-48.04430747 142.27653244 -50.72920968 142.57237163 -53.41407776 142.86853027 C-59.92664707 143.58628632 -66.43960427 144.30046063 -72.95270604 145.01336707 C-80.54113928 145.8440988 -88.12919104 146.67829009 -95.71723378 147.5125799 C-109.25242527 149.00061522 -122.78797817 150.48533725 -136.32373047 151.96826172 C-149.45586383 153.40696859 -162.58770314 154.84832359 -175.71923828 156.29248047 C-190.03453536 157.86681881 -204.34997903 159.43981121 -218.66569328 161.01035202 C-220.19115068 161.17770683 -221.71660806 161.34506177 -223.24206543 161.51241684 C-223.99256483 161.59475017 -224.74306423 161.6770835 -225.51630604 161.76191179 C-230.80607533 162.34230506 -236.09574302 162.92361855 -241.38537598 163.50525284 C-247.82489588 164.21328176 -254.2645886 164.91971424 -260.70450586 165.62412013 C-263.99018769 165.9835467 -267.27576359 166.34389605 -270.56118965 166.70565414 C-274.11910873 167.09729012 -277.67730851 167.48626722 -281.2355957 167.87454224 C-282.27798779 167.98990645 -283.32037987 168.10527066 -284.39435959 168.22413075 C-285.34589039 168.32739922 -286.29742119 168.43066769 -287.27778625 168.53706551 C-288.50971443 168.67213861 -288.50971443 168.67213861 -289.76653004 168.80994046 C-291.83783298 168.98620022 -293.92121108 169 -296 169 C-296.2592778 168.00633926 -296.5185556 167.01267853 -296.78569031 165.98890686 C-299.55270123 155.38515596 -302.32111178 144.78177096 -305.09030151 134.17858887 C-306.15187448 130.11380015 -307.21315329 126.0489348 -308.27420044 121.98400879 C-315.79153932 93.1704691 -315.79153932 93.1704691 -323.421875 64.38671875 C-323.8904467 62.63241295 -323.8904467 62.63241295 -324.3684845 60.84266663 C-325.75289553 55.66401701 -327.14349157 50.48714397 -328.54370117 45.31274414 C-329.01753092 43.54706877 -329.49125346 41.78136462 -329.96484375 40.015625 C-330.17618958 39.24381393 -330.3875354 38.47200287 -330.60528564 37.67680359 C-331.5095423 34.29008031 -332 31.53722164 -332 28 C-329.58577113 26.79288556 -327.75612927 26.71556927 -325.06111145 26.50010681 C-324.01670898 26.41459061 -322.97230652 26.3290744 -321.89625549 26.2409668 C-320.74560104 26.15105469 -319.59494659 26.06114258 -318.40942383 25.96850586 C-316.59705734 25.82198326 -316.59705734 25.82198326 -314.74807739 25.67250061 C-311.42781673 25.40499488 -308.10729882 25.14124759 -304.78659654 24.87931514 C-301.31029235 24.60437663 -297.83433219 24.32515203 -294.35832214 24.04652405 C-288.51506987 23.5788164 -282.67155995 23.11444206 -276.82788086 22.65209961 C-270.08163124 22.11831338 -263.33578548 21.57964469 -256.59014302 21.03824323 C-250.0966417 20.51716496 -243.60289154 19.9992552 -237.10901451 19.48288155 C-234.34875444 19.26335777 -231.58858042 19.04279402 -228.82847023 18.82139397 C-224.96508621 18.51169483 -221.10134153 18.20665964 -217.23754883 17.90209961 C-216.09701553 17.81016327 -214.95648224 17.71822693 -213.78138733 17.62350464 C-208.50278297 17.21110896 -203.29483017 16.89085474 -198 17 C-193.84552669 26.61892615 -190.23483726 36.3954521 -186.6875 46.25 C-186.13242725 47.78525237 -185.57709035 49.32040927 -185.02148438 50.85546875 C-183.67795008 54.56922182 -182.33796824 58.28423819 -181 62 C-173.15610005 62.09192854 -165.37933598 61.81912533 -157.55078125 61.34375 C-155.84283638 61.2438678 -155.84283638 61.2438678 -154.10038757 61.14196777 C-150.50424077 60.93097776 -146.9083752 60.71556444 -143.3125 60.5 C-140.85743919 60.3551749 -138.40236119 60.21064087 -135.94726562 60.06640625 C-129.96464101 59.7143006 -123.98224022 59.35857411 -118 59 C-117.95210831 58.39056549 -117.90421661 57.78113098 -117.85487366 57.15322876 C-117.35689143 50.82668393 -116.85312282 44.50061903 -116.34594727 38.17480469 C-116.15727783 35.81196785 -115.97009859 33.44901155 -115.78442383 31.0859375 C-115.51772802 27.69498922 -115.24572651 24.30450264 -114.97265625 20.9140625 C-114.8491555 19.32182358 -114.8491555 19.32182358 -114.72315979 17.69741821 C-114.64315231 16.71655243 -114.56314484 15.73568665 -114.48071289 14.72509766 C-114.41187393 13.85905914 -114.34303497 12.99302063 -114.27210999 12.10073853 C-114 10 -114 10 -113 8 C-111.14901066 7.62896538 -111.14901066 7.62896538 -108.67921448 7.45578003 C-107.74675903 7.38571747 -106.81430359 7.31565491 -105.85359192 7.24346924 C-104.82239731 7.17585388 -103.7912027 7.10823853 -102.72875977 7.03857422 C-101.64917999 6.9602536 -100.56960022 6.88193298 -99.45730591 6.80123901 C-95.86925802 6.54325182 -92.28041413 6.29892613 -88.69140625 6.0546875 C-86.20892154 5.87899808 -83.72649503 5.70248452 -81.24412537 5.525177 C-76.03317048 5.15483042 -70.8218483 4.79024797 -65.61010742 4.43115234 C-57.60069518 3.87929349 -49.59232531 3.3132813 -41.58398438 2.74609375 C-31.8565989 2.05920432 -22.12898551 1.37572882 -12.40063477 0.70263672 C-10.8568792 0.59514099 -10.8568792 0.59514099 -9.28193665 0.48547363 C-8.34666138 0.42105072 -7.41138611 0.35662781 -6.44776917 0.29025269 C-5.6323594 0.23385557 -4.81694963 0.17745846 -3.97683048 0.11935234 C-2.65303402 0.03942733 -1.32620703 0 0 0 Z " fill="#00C850" transform="translate(2481,293)"/>
<path d="M0 0 C3.12578143 1.6720747 5.39281175 3.7856235 7 7 C7.84495937 13.51825796 6.94362896 18.67544213 4.5 24.75 C0.67793256 34.69173097 0.31706337 44.93944899 4.46484375 54.85546875 C8.62620884 63.37938452 13.14024935 71.71890387 17.65625 80.05859375 C25.74864743 95.47855837 26.72913462 111.42815851 22 128 C21.01842631 130.91563741 19.97986003 133.79222125 18.8671875 136.66015625 C14.04645738 149.66744158 17.22846502 162.79207885 22.7890625 174.93359375 C23.71818482 176.93962609 24.65747611 178.93833417 25.62524414 180.92602539 C28.39256534 186.61995451 29.86952081 191.60366196 29 198 C27.75038118 201.32152568 26.23955905 204.20974807 23.16796875 206.16796875 C20.69476966 207.11714246 18.70893651 207.36817886 16.0625 207.4375 C15.22847656 207.47746094 14.39445312 207.51742187 13.53515625 207.55859375 C9.71701205 206.71730774 8.42074677 205.05021864 6 202 C4.4238617 198.91908613 3.20391029 195.74176349 2 192.5 C1.6582373 191.60651855 1.31647461 190.71303711 0.96435547 189.79248047 C0.28252415 188.00890757 -0.39483469 186.22361752 -1.06738281 184.43652344 C-1.85909612 182.36812061 -2.68683172 180.32628803 -3.5546875 178.2890625 C-11.45235362 159.36270286 -10.11947508 140.22232343 -3.3125 121.25 C0.47893835 110.22036118 -0.49420554 102.58218494 -5 92 C-7.77477112 86.48656633 -10.8301478 81.13176786 -13.8671875 75.75976562 C-24.16974527 57.15546872 -26.45716593 39.65927103 -21 19 C-18.84400946 12.25893623 -16.77345286 6.33336085 -12 1 C-8.27533151 -0.86233425 -4.05504687 -0.57130829 0 0 Z " fill="#00C850" transform="translate(2299,77)"/>
<path d="M0 0 C3.16961356 1.28133314 4.57820229 2.5200233 6.8125 5.0625 C9.17136582 10.89758912 8.64665451 16.72564418 6.5 22.5625 C3.22611762 31.50693464 5.39785861 38.46893646 9 47 C11.05973284 51.1154395 13.29519856 55.12087935 15.5625 59.125 C24.55604005 75.02196129 28.8698851 88.98423285 23.86328125 107.18359375 C23.32652722 108.93472342 22.76564091 110.67887118 22.16796875 112.41015625 C20.12084132 118.45069481 19.57967521 124.03486279 19.55419922 130.37988281 C19.43221032 135.19074583 18.42376891 137.6263962 15 141 C10.32092398 143.28513015 5.12947965 143.92819156 0 143 C-4.13204468 139.60960436 -5.34402216 135.15298255 -6 130 C-6.69371954 122.04534927 -6.46663166 115.4087055 -3.5 107.9375 C0.29552819 98.35676501 0.53813784 88.83179125 -3.39453125 79.234375 C-5.60766868 74.77579156 -8.05835644 70.46159659 -10.5 66.125 C-19.4906034 50.13055271 -23.4836859 34.30838408 -19 16 C-15.42764632 4.41500795 -12.92445983 -1.53163241 0 0 Z " fill="#00C850" transform="translate(2245,99)"/>
<path d="M0 0 C3.61736209 3.1126139 5.45053527 5.62172465 6.12109375 10.40625 C6.12977911 17.97988233 5.17708219 24.31881299 2.66015625 31.47265625 C-0.40724175 40.4284729 0.31183971 48.567837 3.6875 57.3125 C5.25326709 60.46063752 6.93804894 63.54048987 8.625 66.625 C17.27618523 82.60973321 20.66416377 98.36766728 15.8125 116.1875 C15.44125 117.38890625 15.07 118.5903125 14.6875 119.828125 C13.71256693 123.22515742 13.22270786 126.43364119 12.8125 129.9375 C12.24348996 133.61379968 11.76899894 135.9355709 9 138.5 C5.29761779 140.52583178 2.90985109 141.3125 -1.3125 141.3125 C-6.50022969 139.58325677 -8.73964916 137.0770386 -11.3125 132.3125 C-12.0625 129.875 -12.0625 129.875 -12.3125 127.3125 C-12.4671875 125.8275 -12.4671875 125.8275 -12.625 124.3125 C-12.60150325 120.68616803 -11.48566226 117.6617051 -10.3125 114.25 C-6.74104099 103.14021142 -7.13214791 92.78284127 -12.3125 82.3125 C-14.1807983 78.8751161 -16.12529805 75.48220608 -18.08569336 72.09667969 C-25.30725847 59.52195022 -27.60117602 45.48588442 -23.93017578 31.27661133 C-23.55995035 29.92514197 -23.18592171 28.57470875 -22.80810547 27.2253418 C-21.61300776 22.86752989 -20.98937645 18.78774481 -20.75 14.25 C-20.46105564 9.18091094 -20.04055965 5.63976703 -17.3125 1.3125 C-11.7368716 -2.70713908 -6.01951203 -3.06654387 0 0 Z " fill="#00C850" transform="translate(2356.3125,89.6875)"/>
<path d="M0 0 C9 0 9 0 11.31933594 2.16796875 C12.14353027 3.66263672 12.14353027 3.66263672 12.984375 5.1875 C13.60957031 6.27933594 14.23476562 7.37117187 14.87890625 8.49609375 C15.49636719 9.65238281 16.11382813 10.80867187 16.75 12 C18.01550263 14.25006883 19.28112506 16.50007028 20.546875 18.75 C21.13404297 19.82121094 21.72121094 20.89242187 22.32617188 21.99609375 C24.4211232 25.75576136 26.67486012 29.37917149 29 33 C29.589021 31.98015015 29.589021 31.98015015 30.18994141 30.93969727 C31.99857613 27.81218889 33.81175507 24.68733758 35.625 21.5625 C36.55119141 19.95858398 36.55119141 19.95858398 37.49609375 18.32226562 C38.72655083 16.20458424 39.97027458 14.09455235 41.22753906 11.99267578 C42.35531833 10.08849971 43.44545655 8.16113991 44.48339844 6.20654297 C44.95036133 5.38428223 45.41732422 4.56202148 45.8984375 3.71484375 C46.28435059 2.99288818 46.67026367 2.27093262 47.06787109 1.52709961 C49 0 49 0 58 0 C58 17.49 58 34.98 58 53 C54.7 53 51.4 53 48 53 C47.67 42.77 47.34 32.54 47 22 C42.30904949 30.21361202 42.30904949 30.21361202 37.66748047 38.45507812 C37.07338379 39.47021484 36.47928711 40.48535156 35.8671875 41.53125 C35.27019043 42.57861328 34.67319336 43.62597656 34.05810547 44.70507812 C32 47 32 47 28.90478516 47.51123047 C26 47 26 47 23.65625 44.2890625 C22.91545336 43.08095328 22.1973178 41.85871611 21.5 40.625 C21.14808594 40.04105469 20.79617188 39.45710937 20.43359375 38.85546875 C19.26947226 36.91526627 18.13560669 34.95702885 17 33 C15.02 29.7 13.04 26.4 11 23 C10.67 32.9 10.34 42.8 10 53 C6.7 53 3.4 53 0 53 C0 35.51 0 18.02 0 0 Z " fill="#00C850" transform="translate(1593,976)"/>
<path d="M0 0 C9 0 9 0 11.8984375 2.3515625 C12.75206871 3.42086023 13.5765985 4.51385693 14.375 5.625 C14.82633301 6.20386963 15.27766602 6.78273926 15.74267578 7.37915039 C16.69567265 8.60619558 17.6367391 9.84258833 18.56640625 11.08740234 C20.47878258 13.63875728 22.46198466 16.13091634 24.44384766 18.62841797 C26.17759062 20.81999684 27.88958951 23.02798571 29.59716797 25.23999023 C31.68738068 27.86239598 33.85313791 30.42376549 36 33 C36.33 22.11 36.66 11.22 37 0 C40.3 0 43.6 0 47 0 C47 17.49 47 34.98 47 53 C38 53 38 53 35.43359375 51.1640625 C34.77488281 50.32617188 34.11617187 49.48828125 33.4375 48.625 C32.69371094 47.70847656 31.94992188 46.79195312 31.18359375 45.84765625 C30.46300781 44.90792969 29.74242188 43.96820312 29 43 C27.66711814 41.35380102 26.33379754 39.70795716 25 38.0625 C24.35933594 37.25039063 23.71867187 36.43828125 23.05859375 35.6015625 C20.75468188 32.68997748 18.41300682 29.81157942 16.0625 26.9375 C14.93521484 25.55884766 14.93521484 25.55884766 13.78515625 24.15234375 C12.89002503 23.07309363 11.99147383 21.99147383 11 21 C10.67 31.56 10.34 42.12 10 53 C6.7 53 3.4 53 0 53 C0 35.51 0 18.02 0 0 Z " fill="#00C850" transform="translate(2218,976)"/>
<path d="M0 0 C6.93 -0.0928125 6.93 -0.0928125 14 -0.1875 C16.16175781 -0.22846802 16.16175781 -0.22846802 18.3671875 -0.27026367 C33.05007997 -0.36530188 33.05007997 -0.36530188 39.05859375 4.75390625 C39.74115234 5.64916016 39.74115234 5.64916016 40.4375 6.5625 C40.91058594 7.16191406 41.38367187 7.76132812 41.87109375 8.37890625 C45.27861909 13.27206548 44.50293167 19.26518195 44 25 C41.85224303 29.53415361 39.04051223 32.08185228 35 35 C36.43227625 39.13852452 38.47942543 42.21222014 41.125 45.6875 C45 50.78291815 45 50.78291815 45 53 C40.70072571 53.99725435 37.2573577 54.28581315 33 53 C30.93903652 50.76109541 29.53274003 48.21516499 28.0625 45.5625 C25.00013249 39.83228873 25.00013249 39.83228873 19.48828125 36.78125 C15.49656676 36.45836148 15.49656676 36.45836148 10 37 C10 42.28 10 47.56 10 53 C6.7 53 3.4 53 0 53 C0 35.51 0 18.02 0 0 Z M10 8 C10 14.93 10 21.86 10 29 C21.01720935 29.71025205 21.01720935 29.71025205 31 26 C33.11577936 23.68586633 33.92508955 22.17515774 34.125 19.0390625 C33.89383098 15.15253332 33.42615881 13.44919442 30.6875 10.5625 C24.25354631 6.82182925 17.25775876 7.93279853 10 8 Z " fill="#00C850" transform="translate(2107,976)"/>
<path d="M0 0 C6.93 -0.0928125 6.93 -0.0928125 14 -0.1875 C16.16175781 -0.22846802 16.16175781 -0.22846802 18.3671875 -0.27026367 C33.05007997 -0.36530188 33.05007997 -0.36530188 39.05859375 4.75390625 C39.74115234 5.64916016 39.74115234 5.64916016 40.4375 6.5625 C40.91058594 7.16191406 41.38367187 7.76132812 41.87109375 8.37890625 C45.27861909 13.27206548 44.50293167 19.26518195 44 25 C41.85224303 29.53415361 39.04051223 32.08185228 35 35 C36.43227625 39.13852452 38.47942543 42.21222014 41.125 45.6875 C45 50.78291815 45 50.78291815 45 53 C40.70072571 53.99725435 37.2573577 54.28581315 33 53 C30.93903652 50.76109541 29.53274003 48.21516499 28.0625 45.5625 C25.00013249 39.83228873 25.00013249 39.83228873 19.48828125 36.78125 C15.49656676 36.45836148 15.49656676 36.45836148 10 37 C10 42.28 10 47.56 10 53 C6.7 53 3.4 53 0 53 C0 35.51 0 18.02 0 0 Z M10 8 C10 14.93 10 21.86 10 29 C21.01720935 29.71025205 21.01720935 29.71025205 31 26 C33.11577936 23.68586633 33.92508955 22.17515774 34.125 19.0390625 C33.89383098 15.15253332 33.42615881 13.44919442 30.6875 10.5625 C24.25354631 6.82182925 17.25775876 7.93279853 10 8 Z " fill="#00C850" transform="translate(1798,976)"/>
<path d="M0 0 C3.96 0 7.92 0 12 0 C18.33138783 14.05663711 24.65405257 28.11651102 30.8125 42.25 C31.45131104 43.71191772 31.45131104 43.71191772 32.10302734 45.20336914 C32.48797363 46.09016357 32.87291992 46.97695801 33.26953125 47.890625 C33.77383667 49.05126465 33.77383667 49.05126465 34.28833008 50.23535156 C35 52 35 52 35 53 C31.37 53 27.74 53 24 53 C19 43.25 19 43.25 19 41 C10.42 41 1.84 41 -7 41 C-7.99 43.97 -8.98 46.94 -10 50 C-10.66 50.99 -11.32 51.98 -12 53 C-14.6015625 53.29296875 -14.6015625 53.29296875 -17.625 53.1875 C-19.12933594 53.14689453 -19.12933594 53.14689453 -20.6640625 53.10546875 C-21.43492187 53.07066406 -22.20578125 53.03585937 -23 53 C-15.45668804 35.27920364 -7.73637854 17.63709124 0 0 Z M5 12 C3.66087415 15.12254943 2.32969342 18.24842358 1 21.375 C0.42765625 22.70917969 0.42765625 22.70917969 -0.15625 24.0703125 C-0.5171875 24.92109375 -0.878125 25.771875 -1.25 26.6484375 C-1.75273437 27.82672119 -1.75273437 27.82672119 -2.265625 29.02880859 C-3.11637101 30.96176935 -3.11637101 30.96176935 -3 33 C2.94 33 8.88 33 15 33 C12.76686274 25.55620912 9.59727921 18.88023305 6 12 C5.67 12 5.34 12 5 12 Z " fill="#00C850" transform="translate(2176,976)"/>
<path d="M0 0 C3.96 0 7.92 0 12 0 C18.33138783 14.05663711 24.65405257 28.11651102 30.8125 42.25 C31.45131104 43.71191772 31.45131104 43.71191772 32.10302734 45.20336914 C32.48797363 46.09016357 32.87291992 46.97695801 33.26953125 47.890625 C33.77383667 49.05126465 33.77383667 49.05126465 34.28833008 50.23535156 C35 52 35 52 35 53 C31.37 53 27.74 53 24 53 C19 43.25 19 43.25 19 41 C10.42 41 1.84 41 -7 41 C-7.99 43.97 -8.98 46.94 -10 50 C-10.66 50.99 -11.32 51.98 -12 53 C-14.6015625 53.29296875 -14.6015625 53.29296875 -17.625 53.1875 C-19.12933594 53.14689453 -19.12933594 53.14689453 -20.6640625 53.10546875 C-21.43492188 53.07066406 -22.20578125 53.03585937 -23 53 C-15.45668804 35.27920364 -7.73637854 17.63709124 0 0 Z M5 12 C3.66087415 15.12254943 2.32969342 18.24842358 1 21.375 C0.42765625 22.70917969 0.42765625 22.70917969 -0.15625 24.0703125 C-0.5171875 24.92109375 -0.878125 25.771875 -1.25 26.6484375 C-1.75273438 27.82672119 -1.75273438 27.82672119 -2.265625 29.02880859 C-3.11637101 30.96176935 -3.11637101 30.96176935 -3 33 C2.94 33 8.88 33 15 33 C12.76686274 25.55620912 9.59727921 18.88023305 6 12 C5.67 12 5.34 12 5 12 Z " fill="#00C850" transform="translate(2007,976)"/>
<path d="M0 0 C3.96 0 7.92 0 12 0 C18.33138783 14.05663711 24.65405257 28.11651102 30.8125 42.25 C31.45131104 43.71191772 31.45131104 43.71191772 32.10302734 45.20336914 C32.48797363 46.09016357 32.87291992 46.97695801 33.26953125 47.890625 C33.77383667 49.05126465 33.77383667 49.05126465 34.28833008 50.23535156 C35 52 35 52 35 53 C31.37 53 27.74 53 24 53 C19 43.25 19 43.25 19 41 C10.42 41 1.84 41 -7 41 C-7.99 43.97 -8.98 46.94 -10 50 C-10.66 50.99 -11.32 51.98 -12 53 C-14.6015625 53.29296875 -14.6015625 53.29296875 -17.625 53.1875 C-19.12933594 53.14689453 -19.12933594 53.14689453 -20.6640625 53.10546875 C-21.43492188 53.07066406 -22.20578125 53.03585937 -23 53 C-15.45668804 35.27920364 -7.73637854 17.63709124 0 0 Z M5 12 C3.66087415 15.12254943 2.32969342 18.24842358 1 21.375 C0.42765625 22.70917969 0.42765625 22.70917969 -0.15625 24.0703125 C-0.5171875 24.92109375 -0.878125 25.771875 -1.25 26.6484375 C-1.75273438 27.82672119 -1.75273438 27.82672119 -2.265625 29.02880859 C-3.11637101 30.96176935 -3.11637101 30.96176935 -3 33 C2.94 33 8.88 33 15 33 C12.76686274 25.55620912 9.59727921 18.88023305 6 12 C5.67 12 5.34 12 5 12 Z " fill="#00C850" transform="translate(1552,976)"/>
<path d="M0 0 C3.63 0 7.26 0 11 0 C11.01458252 1.05912598 11.02916504 2.11825195 11.04418945 3.20947266 C11.10237327 7.15707342 11.17960407 11.10411571 11.26245117 15.05126953 C11.29560636 16.75625512 11.32366737 18.46134798 11.34643555 20.16650391 C11.38015568 22.62448634 11.43247794 25.08149406 11.48828125 27.5390625 C11.49467117 28.29555084 11.5010611 29.05203918 11.50764465 29.83145142 C11.63802559 34.5759113 12.40753701 37.88230784 15 42 C19.41640797 45.25972969 22.75892086 45.17487158 27.94921875 44.421875 C30.18518941 44.00415178 30.18518941 44.00415178 33 43 C35.99167298 37.1828581 36.13657594 30.83657375 36.31640625 24.4140625 C36.33718735 23.71227875 36.35796844 23.010495 36.37937927 22.28744507 C36.44426324 20.06672042 36.5034723 17.84588724 36.5625 15.625 C36.60574354 14.11066629 36.6493596 12.59634317 36.69335938 11.08203125 C36.79988086 7.38813345 36.90131677 3.69411646 37 0 C40.3 0 43.6 0 47 0 C47.0745935 5.12285234 47.12881017 10.24538304 47.16479492 15.36865234 C47.17980854 17.10861728 47.20022577 18.84854484 47.22631836 20.58837891 C47.26303107 23.1006802 47.27980069 25.6124778 47.29296875 28.125 C47.30845261 28.89303955 47.32393646 29.6610791 47.33988953 30.45239258 C47.34190742 37.04383038 46.00887671 42.474555 41.8125 47.75 C33.6467181 54.28262552 26.47474887 55.11287036 16 54 C10.49299486 52.56597247 6.93987036 49.3623118 3.2265625 45.171875 C-0.0338793 39.39860862 -0.28739318 33.02341929 -0.1953125 26.5625 C-0.1924826 25.79695801 -0.18965271 25.03141602 -0.18673706 24.24267578 C-0.17565648 21.82828276 -0.15057601 19.41427846 -0.125 17 C-0.11495448 15.35026582 -0.1058314 13.70052576 -0.09765625 12.05078125 C-0.07575712 8.03370732 -0.04131325 4.01691927 0 0 Z " fill="#00C850" transform="translate(2046,976)"/>
<path d="M0 0 C-0.99 2.97 -1.98 5.94 -3 9 C-3.83402344 8.69964844 -4.66804688 8.39929688 -5.52734375 8.08984375 C-12.53740958 5.72103571 -17.73409753 4.24212037 -25 6 C-26.76762033 7.31413493 -26.76762033 7.31413493 -28 9 C-28.25069913 11.62570704 -28.25069913 11.62570704 -28 14 C-22.88662487 16.48401686 -17.86129285 18.36547665 -12.375 19.875 C-6.88835706 21.50043403 -2.62809366 23.46488293 1 28 C2.65464036 32.96392107 2.56924557 37.29226329 0.9375 42.1875 C-1.77460906 46.12443251 -5.19453101 49.0105712 -9.75 50.6171875 C-19.44185341 52.26614867 -30.32313556 51.97008135 -39 47 C-39.66 46.01 -40.32 45.02 -41 44 C-39.625 40.3125 -39.625 40.3125 -38 37 C-32 39 -32 39 -29.94921875 39.8359375 C-24.12325542 42.09181673 -19.11561985 42.46819032 -13 41 C-12.01 40.34 -11.02 39.68 -10 39 C-9.7497843 35.91634129 -9.7497843 35.91634129 -10 33 C-15.21045557 30.18309746 -20.39492598 28.5872566 -26.078125 27.0703125 C-31.80953328 25.40776659 -36.12850432 22.92929758 -39.4375 17.75 C-40.46528718 12.72526268 -39.70537275 8.0690934 -38.0625 3.25 C-28.19014581 -7.51984094 -11.99620802 -5.99810401 0 0 Z " fill="#00C850" transform="translate(1939,979)"/>
<path d="M0 0 C12.87 0 25.74 0 39 0 C39 2.64 39 5.28 39 8 C29.43 8 19.86 8 10 8 C10 12.62 10 17.24 10 22 C18.58 22 27.16 22 36 22 C36 24.64 36 27.28 36 30 C27.42 30 18.84 30 10 30 C10 34.95 10 39.9 10 45 C19.9 45 29.8 45 40 45 C40 47.64 40 50.28 40 53 C26.8 53 13.6 53 0 53 C0 35.51 0 18.02 0 0 Z " fill="#00C850" transform="translate(1853,976)"/>
<path d="M0 0 C12.87 0 25.74 0 39 0 C39 2.64 39 5.28 39 8 C29.43 8 19.86 8 10 8 C10 13.28 10 18.56 10 24 C18.58 24 27.16 24 36 24 C36 26.64 36 29.28 36 32 C27.42 32 18.84 32 10 32 C10 38.93 10 45.86 10 53 C6.7 53 3.4 53 0 53 C0 35.51 0 18.02 0 0 Z " fill="#00C850" transform="translate(1491,976)"/>
<path d="M0 0 C4.20505256 -0.75408165 7.82062101 -0.99127951 12 0 C15.55706278 3.47560333 17.5569536 7.57403362 19.75 12 C20.36359375 13.1446875 20.9771875 14.289375 21.609375 15.46875 C23.11582197 18.29333806 24.57559715 21.13340515 26 24 C26.49628906 23.18917969 26.99257812 22.37835937 27.50390625 21.54296875 C28.55327546 19.83251684 29.60337004 18.12242668 30.6706543 16.4230957 C32.4704587 13.54957318 34.15048092 10.70732151 35.703125 7.6875 C37.28234712 4.74370731 38.62600532 2.35552001 41 0 C44.82997259 -0.90300167 48.14745431 -0.68969624 52 0 C50.92001767 1.91855685 49.83565929 3.83464987 48.75 5.75 C48.23167603 6.67969604 48.23167603 6.67969604 47.70288086 7.62817383 C45.55545582 11.43482497 43.28888959 15.09921514 40.83203125 18.71484375 C33.12072672 30.3047782 30.17906749 39.0441473 31 53 C27.7 53 24.4 53 21 53 C21.18755859 51.55560547 21.18755859 51.55560547 21.37890625 50.08203125 C22.40633407 34.11619071 13.18272258 21.90968517 4.88525391 9.05761719 C3.06678817 6.10832104 1.49892513 3.12183471 0 0 Z " fill="#00C850" transform="translate(1720,976)"/>
<path d="M0 0 C14.85 0 29.7 0 45 0 C45 2.64 45 5.28 45 8 C39.39 8 33.78 8 28 8 C28 22.85 28 37.7 28 53 C24.37 53 20.74 53 17 53 C17 38.15 17 23.3 17 8 C11.39 8 5.78 8 0 8 C0 5.36 0 2.72 0 0 Z " fill="#00C850" transform="translate(2271,976)"/>
<path d="M0 0 C14.85 0 29.7 0 45 0 C45 2.64 45 5.28 45 8 C39.39 8 33.78 8 28 8 C28 22.85 28 37.7 28 53 C24.37 53 20.74 53 17 53 C17 38.15 17 23.3 17 8 C11.39 8 5.78 8 0 8 C0 5.36 0 2.72 0 0 Z " fill="#00C850" transform="translate(1943,976)"/>
<path d="M0 0 C3.3 0 6.6 0 10 0 C10 14.85 10 29.7 10 45 C19.24 45 28.48 45 38 45 C38 47.64 38 50.28 38 53 C25.46 53 12.92 53 0 53 C0 35.51 0 18.02 0 0 Z " fill="#00C850" transform="translate(1688,976)"/>
<path d="M0 0 C3.3 0 6.6 0 10 0 C10 17.49 10 34.98 10 53 C6.7 53 3.4 53 0 53 C0 35.51 0 18.02 0 0 Z " fill="#00C850" transform="translate(1664,976)"/>
</svg>
